<svg xmlns="http://www.w3.org/2000/svg" height="48" viewBox="0 -960 960 960" width="48"><path d="M161.038-201.038v-637.924h637.924v327.077q-2.846.654-5.907.346-3.06-.307-5.69-.307h-18.596v-296.923H191.231v577.538H334.08q1.997 7.693 4.596 14.959 2.6 7.267 6.17 15.234H161.038ZM191.231-280v48.769-577.538V-280Zm114.692-65.923h34q11.5-30.615 29.654-58.789 18.154-28.173 41.192-51.403H305.923v110.192Zm0-238.846h110.192v-110.193H305.923v110.193ZM560-160.731q-48.969 0-84.119-35.218-35.15-35.219-35.15-84.327 0-49.109 34.928-84.493 34.928-35.385 84.341-35.385h68.423v30.192H560.11q-37.814 0-63.501 25.995-25.686 25.995-25.686 63.775 0 37.192 25.791 63.231 25.792 26.038 63.286 26.038h73.039v30.192H560Zm-15.231-424.038h110.193v-110.193H544.769v110.193Zm15.962 319.423v-30.193h239.423v30.193H560.731Zm166.961 104.615v-30.192H800q37.567 0 63.764-25.793 26.198-25.792 26.198-63.288 0-37.496-26.289-63.727-26.288-26.231-63.481-26.231h-67.731v-30.192H800q49.564 0 84.859 35.214 35.295 35.215 35.295 85.123 0 49.163-35.533 84.125-35.533 34.961-84.621 34.961h-72.308Z"/></svg>