<svg xmlns="http://www.w3.org/2000/svg" height="48" viewBox="0 -960 960 960" width="48"><path d="m760.464-591.308-2.906-27.728q-11.866-2.579-26.396-11.118-14.53-8.538-21.152-18.846l-30.933 13.462-13.616-23 27.077-18.654q-2-5.649-3.5-12.981t-1.5-13.981q0-5.88 1.5-13.596t3.5-13.365L665.461-749l13.616-23 30.822 12.692q6.986-10.307 21.555-18.961 14.57-8.654 25.777-10.116l3.5-27.846h26.497l2.906 27.728q11.866 1.58 26.396 10.234 14.531 8.654 21.922 18.961L868.616-772l13.615 23-27.077 17.885q2 5.649 3.5 13.365t1.5 13.596q0 6.649-1.5 13.981t-3.5 12.981l27.077 18.654-13.615 23L838.563-649q-7.755 10.308-22.325 18.846-14.57 8.539-25.776 11l-3.5 27.846h-26.498Zm13.767-54.077q25 0 41.5-16.5t16.5-42.269q0-25-16.5-41.5t-41.5-16.5q-25.769 0-42.269 16.5t-16.5 41.5q0 25.769 16.5 42.269t42.269 16.5ZM656.87-366.731l-.435-28.231q-7.973-2.461-17.397-8.23-9.423-5.77-15.423-11.539l-26 13.231-15.73-24.846 25.23-15.923q-2-4.769-2.384-9.423-.385-4.654-.385-8.654 0-4.769.385-8.654.384-3.885 2.384-9.423l-25.23-16.692 15.73-24.847 26 13.231q6.616-5.884 15.637-11.226 9.021-5.341 16.888-8.543l.447-27.462h30.67l1.216 27.462q7.818 3.106 16.903 8.495 9.086 5.39 15.701 11.274l25.231-13.231 16.5 24.847-25.231 16.692q2 5.538 2 9.423v17.308q0 4.654-2 9.423l25.231 15.923-16.5 24.846-25.231-13.231q-6 5.769-15.423 11.539-9.423 5.769-17.192 8.23l-1 28.231H656.87Zm15.092-54.077q16.384 0 28.346-11.577 11.961-11.577 11.961-27.961 0-16.385-11.961-28.346-11.962-11.962-28.346-11.962-16.385 0-27.962 11.962-11.577 11.961-11.577 28.346 0 16.384 11.577 27.961 11.577 11.577 27.962 11.577Zm-316.835-14.077q-50.627 0-82.704-31.984-32.077-31.984-32.077-87.39H216.5v-30.973h23.846q.769-27.076 11.365-50.114 10.597-23.039 33.509-44.577v37.941q0 5.607 3.819 9.179 3.82 3.572 9.384 3.572 5.86 0 9.218-3.474 3.359-3.474 3.359-8.967v-51.208q7.725-2.768 20.382-5.06 12.656-2.291 24.003-2.291 11.346 0 24.002 2.288 12.657 2.289 20.382 5.051v51.105q0 5.21 3.359 8.883 3.359 3.673 9.218 3.673 5.565 0 9.384-3.485 3.82-3.485 3.82-8.941v-38.266q23.681 21.538 33.277 44.577 9.596 23.038 11.135 50.114h23.846v30.973h-23.846q0 55.406-32.489 87.39t-82.346 31.984Zm.027-30.192q38.154 0 61.385-23.462 23.23-23.461 23.23-61.153H270.538q0 37.692 23.231 61.153 23.231 23.462 61.385 23.462ZM77.538-153.231v-56.154q0-25.807 13.208-43.48t38.331-30.084q50.154-24.705 108.278-39.147 58.124-14.443 117.799-14.443 59.674 0 117.414 14.443 57.74 14.442 108.663 39.147 24.353 12.411 37.946 30.084 13.592 17.673 13.592 43.48v56.154H77.539Zm30.193-30.192h494.846v-26.304q0-18.235-10.865-29.138-10.866-10.904-25.865-18.287-40.38-19.27-95.19-34.232-54.811-14.962-115.44-14.962t-115.942 15.037q-55.314 15.037-94.837 34.19-14.977 7.35-25.842 18.254-10.865 10.903-10.865 29.138v26.304Zm247.423 0Z"/></svg>