<svg xmlns="http://www.w3.org/2000/svg" height="48" viewBox="0 -960 960 960" width="48"><path d="M311.615-603.808V-634h487.231v30.192H311.615Zm0 138.847v-30.193h487.231v30.193H311.615Zm0 138.846v-30.193h487.231v30.193H311.615ZM180.869-599.192q-7.6 0-13.658-5.895-6.057-5.894-6.057-15.202 0-7.654 6.111-12.99 6.112-5.337 14.462-5.337 7.85 0 13.407 5.532 5.558 5.531 5.558 12.968 0 9.135-5.661 15.029-5.662 5.895-14.162 5.895Zm0 138.077q-7.6 0-13.658-5.875-6.057-5.875-6.057-14.082 0-7.61 6.111-13.596 6.112-5.986 14.462-5.986 7.85 0 13.407 6.111 5.558 6.111 5.558 14.548 0 7.207-5.661 13.043-5.662 5.837-14.162 5.837Zm.04 139.231q-7.582 0-13.669-5.452-6.086-5.452-6.086-14.51 0-8.266 6.111-13.922 6.112-5.655 14.462-5.655 7.85 0 13.407 5.819 5.558 5.819 5.558 13.681 0 9.135-5.65 14.587t-14.133 5.452Z"/></svg>