<svg xmlns="http://www.w3.org/2000/svg" height="48" viewBox="0 -960 960 960" width="48"><path d="m188.154-506.769 112.077 47.653q20.807-40.73 45.077-79.884 24.269-39.154 54.038-75.616l-72.885-14.307q-6.153-1.154-11.923.577-5.769 1.73-10.384 6.346l-116 115.231Zm135.885 66.5 122.615 121.846q54.962-26.692 103.673-59.75 48.712-33.058 88.173-72.519 68.846-68.847 102.635-141.866 33.788-73.019 41.634-184.981-112.73 7.846-185.173 41-72.442 33.154-141.288 102-39.462 39.462-72.519 88.808-33.058 49.346-59.75 105.462Zm232.538-111.846Q540.039-567 540.039-589.789q0-22.788 16.538-38.942 15.654-16.154 38.827-16.154t39.712 16.154q15.653 16.154 15.653 38.942 0 22.789-15.653 37.674-16.539 16.538-39.712 16.538-23.173 0-38.827-16.538Zm-44.961 369.192 115.615-114.846q4.615-4.616 5.962-10.769 1.346-6.154.961-11.539l-15.077-72.884q-36.461 28.115-75.231 52.634-38.769 24.519-80.269 46.096l48.039 111.308ZM813.5-807.5q2.039 115.269-35.884 207.346T662.039-431.192q-3.923 3.923-8.096 8.673t-8.097 7.904l17 88.038q2.231 14.5-2.269 27.231-4.5 12.731-12.577 21.692L501.077-130.5l-66.423-157.385-142.808-141.154-155.731-68.346 146.5-145.769q8.846-8.962 21.962-13.846 13.115-4.885 27.615-1.885L421-641q3.538-3.154 7.461-7.789 3.924-4.634 8.347-7.788 77.269-77.654 168.961-115.308Q697.462-809.539 813.5-807.5ZM201.769-314.654q23.846-24.615 56.865-23.462 33.02 1.154 56.751 23.616 23.346 23.462 23.288 56.673-.058 33.212-23.019 56.943-21.885 21.115-64.616 35.557-42.73 14.443-104.692 19.327 5.769-61.577 19.846-104.75t35.577-63.904Zm21.269 22.269q-14.231 14.847-24.596 43.635-10.365 28.789-15.404 67.096 38.308-5.807 67.096-16.173 28.789-10.365 43.635-25.365 14.769-13.039 14.885-34.154.115-21.115-14.423-35.885-15.654-14.538-36.52-14.23-20.865.307-34.673 15.076Z"/></svg>