<svg xmlns="http://www.w3.org/2000/svg" height="48" viewBox="0 -960 960 960" width="48"><path d="m412.885-308.154 200.077-199.308-20.308-20.307L414.385-349.5l-93.077-92.308-21.039 21.039 112.616 112.615ZM255.962-201.038q-73.051 0-123.93-51.061-50.878-51.061-50.878-124.516 0-67.875 48.403-120.245 48.404-52.371 118.251-54.64 9.841-88.888 76.567-148.06 66.725-59.171 156.844-59.171 97.092 0 164.552 69.731t67.46 167.885v51.653h24.615q59.193-2.23 100.097 36.449 40.903 38.679 40.903 97.128 0 56.045-39.413 95.446-39.414 39.401-95.048 39.401H255.962Zm.016-30.193h488.364q43.291 0 73.802-30.495 30.51-30.496 30.51-73.975 0-42.709-30.42-73.092-30.42-30.382-73.82-30.382h-61.376v-81.621q0-86.344-59.315-147.043-59.315-60.7-144.801-60.7-84.715 0-144.555 60.592-59.84 60.591-59.84 146.832h-19.899q-59.32 0-101.301 42.23-41.981 42.231-41.981 103.097 0 59.865 42.394 102.211t102.238 42.346ZM480-480Z"/></svg>